<?xml version="1.0" encoding="UTF-8"?>
<svg xmlns="http://www.w3.org/2000/svg" version="1.1" viewBox="0 0 459.5 303.9">
  <defs>
    <style>
      .cls-1 {
        fill: #012143;
      }

      .cls-2 {
        fill: #002245;
        stroke: #ae9254;
        stroke-miterlimit: 10;
        stroke-width: 2px;
      }

      .cls-3 {
        fill: #ae9254;
      }
    </style>
  </defs>
  <!-- Generator: Adobe Illustrator 28.6.0, SVG Export Plug-In . SVG Version: 1.2.0 Build 709)  -->
  <g>
    <g id="Layer_1">
      <g>
        <g>
          <g>
            <path class="cls-1" d="M14.7,209.6h-.1c0-.8-.3-1.4-.9-2-.6-.6-1.2-.8-2-.8h-.5v-.5s3.6,0,3.6,0v3.3ZM14.7,234.6v3.3h-3.6v-.5h.6c.8,0,1.4-.3,2-.8s.8-1.2.9-2h.1ZM21.3,206.3v31.5h-6.8v-31.5h6.8ZM26.1,206.3c2.6,0,4.7.4,6.3,1.1,1.6.8,2.8,1.8,3.6,3.1.8,1.3,1.2,2.8,1.3,4.4,0,1.5-.2,2.9-.8,4.2-.6,1.3-1.4,2.3-2.4,3.1-1,.8-2.1,1.4-3.4,1.8-1.3.4-2.6.5-3.9.3-1.4-.2-2.7-.7-4-1.6v-.4c.8,0,1.4,0,2-.2.6-.1,1.2-.3,1.8-.7s1.3-.8,1.8-1.5c.6-.7,1-1.6,1.3-2.7.1-.4.2-.8.2-1.3s0-1,0-1.4c0-1.9-.5-3.5-1.6-4.6-1-1.2-2.4-1.7-4.3-1.7h-3.1c-.2-.6-.3-1.3-.5-1.9h5.4ZM21.2,234.6h.1c0,.8.3,1.4.9,2,.6.6,1.2.8,2,.8h.6v.5h-3.6v-3.3Z"/>
            <path class="cls-1" d="M44,209.6h-.1c0-.8-.3-1.4-.9-2-.6-.6-1.2-.8-2-.8h-.6v-.5h3.6v3.3ZM44,234.6v3.3h-3.6v-.5h.6c.8,0,1.4-.3,2-.8s.8-1.2.9-2h.1ZM50.6,206.3v31.5h-6.8v-31.5h6.8ZM63,206.3v1.9h-12.6v-1.9h12.6ZM60.8,221.4v1.9h-10.4v-1.9h10.4ZM62.5,235.9l1.1,1.9h-13.1v-1.9h12ZM65.7,228.7l-2.1,9.2h-8.8l1.6-1.9c1.5,0,2.8-.3,4-.9,1.1-.6,2.1-1.4,2.9-2.5.8-1.1,1.5-2.4,1.9-3.8h.4ZM60.8,217.1v4.3h-4.3c1.1-.1,2-.5,2.7-1.2s1.1-1.6,1.1-2.7v-.4h.5ZM60.8,223.2v4.3h-.5v-.4c0-1.1-.4-2-1.1-2.7s-1.6-1.1-2.7-1.1h0c0,0,4.3,0,4.3,0ZM63,205.5v1.3l-5.5-.5c.7,0,1.4,0,2.1-.1.7,0,1.4-.2,2-.3.6-.1,1.1-.2,1.4-.4ZM63,208.1v5.3h-.5v-.5c0-1.4-.4-2.5-1.2-3.3-.8-.8-1.9-1.3-3.4-1.3h0c0,0,5,0,5,0Z"/>
            <path class="cls-1" d="M71.8,234.6v3.2h-3.7v-.5h.9c.7,0,1.4-.3,1.9-.8s.8-1.2.8-1.9h.1ZM71.6,205.7l6.5,6.9v25.3s-6.4,0-6.4,0v-26.5c0-1.7-.2-3.6-.5-5.6h.5ZM71.6,205.7l28.7,27.4.5,5.4-28.7-27.3-.5-5.5ZM78.1,234.6c0,.8.3,1.4.8,1.9s1.2.8,1.9.8h.9v.5h-3.7v-3.2h.1ZM90.7,206.3h3.7v3.2h0c0-.8-.3-1.4-.8-2-.5-.5-1.2-.8-2-.8h-.9v-.5ZM100.7,206.3v26.4c0,1.1,0,2.1.1,3,0,.9.2,1.8.4,2.8h-.4l-6.5-7.3v-24.8h6.4ZM104.3,206.3v.5h-.8c-.8,0-1.4.3-1.9.8-.5.5-.8,1.2-.9,2h-.1v-3.2h3.7Z"/>
            <path class="cls-1" d="M106.3,205.5c.3.1.8.2,1.4.4.6.1,1.3.2,2,.3s1.4.1,2.1.1l-5.5.5v-1.3ZM135.1,206.3v1.9h-28.8v-1.9h28.8ZM111.3,208h0c-1.4.2-2.5.6-3.3,1.4s-1.2,1.9-1.2,3.4v.5h-.5s0-5.3,0-5.3h5ZM117.5,234.6v3.3h-3.6v-.5h.6c.8,0,1.4-.3,2-.8s.8-1.2.9-2h.1ZM124.1,206.5v31.4h-6.8v-31.4h6.8ZM123.9,234.6h.1c0,.8.3,1.4.9,2,.6.6,1.2.8,2,.8h.6v.5h-3.6v-3.3ZM135.1,205.5v1.3l-5.5-.5c.7,0,1.4,0,2.1-.1s1.4-.2,2-.3c.6-.1,1.1-.2,1.3-.4ZM135.1,208v5.3h-.4v-.5c0-1.4-.4-2.5-1.2-3.4s-1.9-1.3-3.4-1.3h0c0-.1,5-.1,5-.1Z"/>
            <path class="cls-1" d="M138,234.6c-.2.6-.3,1.1-.1,1.5.1.4.4.7.8,1,.4.2.7.3,1.1.3h.4v.5h-9.6v-.5h.4c.7,0,1.4-.2,2.1-.7.7-.4,1.3-1.2,1.8-2.2h3.1ZM147.7,205.4l.2,5.5-11.2,26.8h-3.3l11.7-26.4c0-.2.2-.5.5-1,.2-.5.5-1.1.7-1.7.3-.6.5-1.2.7-1.8s.3-1,.3-1.4h.4ZM152.4,227.1v1.9h-13.2v-1.9h13.2ZM147.7,205.4l14.7,32.1h-8.1l-9.4-23.4,2.7-8.7ZM153.1,234.6h7.9c.5,1,1.1,1.7,1.8,2.2.7.4,1.4.7,2.1.7h.4v.5h-14.3v-.5h.4c.6,0,1.1-.2,1.6-.7.4-.5.5-1.2.1-2.1Z"/>
            <path class="cls-1" d="M169.5,209.6h-.1c0-.8-.3-1.4-.9-2-.6-.6-1.2-.8-2-.8h-.5v-.5s3.6,0,3.6,0v3.3ZM169.5,234.6v3.3h-3.6v-.5h.6c.8,0,1.4-.3,2-.8s.8-1.2.9-2h.1ZM176.1,206.3v31.5h-6.8v-31.5h6.8ZM182.2,206.3c3.5,0,6.6.6,9.2,1.9,2.6,1.3,4.6,3.1,6,5.4,1.4,2.4,2.1,5.2,2.1,8.4s-.7,6-2.1,8.4c-1.4,2.4-3.4,4.2-6,5.4-2.6,1.3-5.6,1.9-9.2,1.9h-10.7v-1.9h10.2c2.2,0,4-.6,5.6-1.7s2.8-2.7,3.6-4.8c.8-2.1,1.3-4.5,1.3-7.4s-.4-5.3-1.3-7.4c-.8-2.1-2-3.7-3.6-4.8s-3.4-1.7-5.6-1.7h-10.7v-1.9h11.2Z"/>
            <path class="cls-1" d="M218.9,234.6c-.2.6-.3,1.1-.1,1.5.1.4.4.7.8,1,.4.2.7.3,1.1.3h.4v.5h-9.6v-.5h.4c.7,0,1.4-.2,2.1-.7.7-.4,1.3-1.2,1.8-2.2h3.1ZM228.6,205.4l.2,5.5-11.2,26.8h-3.3l11.7-26.4c0-.2.2-.5.5-1,.2-.5.5-1.1.7-1.7.3-.6.5-1.2.7-1.8s.3-1,.3-1.4h.4ZM233.3,227.1v1.9h-13.2v-1.9h13.2ZM228.6,205.4l14.7,32.1h-8.1l-9.4-23.4,2.7-8.7ZM234,234.6h7.9c.5,1,1.1,1.7,1.8,2.2.7.4,1.4.7,2.1.7h.4v.5h-14.3v-.5h.4c.6,0,1.1-.2,1.6-.7.4-.5.5-1.2.1-2.1Z"/>
            <path class="cls-1" d="M276,224.7l.4,7.7c-.7,1.1-1.5,2.1-2.7,3-1.1.9-2.5,1.6-4.1,2.2-1.6.6-3.6.8-5.8.8-3.7,0-6.9-.7-9.6-2-2.7-1.3-4.9-3.2-6.4-5.6-1.5-2.4-2.2-5.4-2.2-8.8s.7-6.3,2.2-8.7c1.5-2.4,3.6-4.3,6.3-5.6,2.7-1.3,6-2,9.8-2s4.6.2,6.5.7c1.9.5,3.5,1.1,4.7,1.8v7.7c0,0-.3,0-.3,0-.8-3-2.1-5.1-4-6.4-1.8-1.3-4-1.9-6.4-1.9s-4.5.6-6.2,1.8-3,2.8-4,5c-.9,2.1-1.4,4.7-1.4,7.7s.4,5.5,1.3,7.7c.9,2.2,2.1,3.8,3.8,5,1.6,1.2,3.6,1.8,5.8,1.9,2.3,0,4.3-.4,5.8-1.1s2.9-2,3.8-3.7c1-1.7,1.7-4.1,2.2-7h.4Z"/>
            <path class="cls-1" d="M284.9,234.6c-.2.6-.3,1.1-.1,1.5.1.4.4.7.8,1,.4.2.7.3,1.1.3h.4v.5h-9.6v-.5h.4c.7,0,1.4-.2,2.1-.7.7-.4,1.3-1.2,1.8-2.2h3.1ZM294.5,205.4l.2,5.5-11.2,26.8h-3.3l11.7-26.4c0-.2.2-.5.5-1,.2-.5.5-1.1.7-1.7.3-.6.5-1.2.7-1.8s.3-1,.3-1.4h.4ZM299.3,227.1v1.9h-13.2v-1.9h13.2ZM294.5,205.4l14.7,32.1h-8.1l-9.4-23.4,2.7-8.7ZM299.9,234.6h7.9c.5,1,1.1,1.7,1.8,2.2.7.4,1.4.7,2.1.7h.4v.5h-14.3v-.5h.4c.6,0,1.1-.2,1.6-.7.4-.5.5-1.2.1-2.1Z"/>
            <path class="cls-1" d="M316.4,209.6h-.1c0-.8-.3-1.4-.9-2-.6-.6-1.2-.8-2-.8h-.5v-.5s3.6,0,3.6,0v3.3ZM316.4,234.6v3.3h-3.6v-.5h.6c.8,0,1.4-.3,2-.8s.8-1.2.9-2h.1ZM323,206.3v31.5h-6.8v-31.5h6.8ZM329.1,206.3c3.5,0,6.6.6,9.2,1.9,2.6,1.3,4.6,3.1,6,5.4,1.4,2.4,2.1,5.2,2.1,8.4s-.7,6-2.1,8.4c-1.4,2.4-3.4,4.2-6,5.4-2.6,1.3-5.6,1.9-9.2,1.9h-10.7v-1.9h10.2c2.2,0,4-.6,5.6-1.7s2.8-2.7,3.6-4.8c.8-2.1,1.3-4.5,1.3-7.4s-.4-5.3-1.3-7.4c-.8-2.1-2-3.7-3.6-4.8s-3.4-1.7-5.6-1.7h-10.7v-1.9h11.2Z"/>
            <path class="cls-1" d="M352.7,209.6h-.1c0-.8-.3-1.4-.9-2-.6-.6-1.2-.8-2-.8h-.6v-.5h3.6v3.3ZM352.7,234.6v3.3h-3.6v-.5h.6c.8,0,1.4-.3,2-.8s.8-1.2.9-2h.1ZM359.3,206.3v31.5h-6.8v-31.5h6.8ZM371.8,206.3v1.9h-12.6v-1.9h12.6ZM369.5,221.4v1.9h-10.4v-1.9h10.4ZM371.2,235.9l1.1,1.9h-13.1v-1.9h12ZM374.5,228.7l-2.1,9.2h-8.8l1.6-1.9c1.5,0,2.8-.3,4-.9,1.1-.6,2.1-1.4,2.9-2.5.8-1.1,1.5-2.4,1.9-3.8h.4ZM369.5,217.1v4.3h-4.3c1.1-.1,2-.5,2.7-1.2s1.1-1.6,1.1-2.7v-.4h.5ZM369.5,223.2v4.3h-.5v-.4c0-1.1-.4-2-1.1-2.7s-1.6-1.1-2.7-1.1h0c0,0,4.3,0,4.3,0ZM371.8,205.5v1.3l-5.5-.5c.7,0,1.4,0,2.1-.1.7,0,1.4-.2,2-.3.6-.1,1.1-.2,1.4-.4ZM371.8,208.1v5.3h-.5v-.5c0-1.4-.4-2.5-1.2-3.3-.8-.8-1.9-1.3-3.4-1.3h0c0,0,5,0,5,0Z"/>
            <path class="cls-1" d="M380.3,234.6v3.3h-5v-.5h.7c.8,0,1.5-.2,2.2-.7.6-.5,1-1.2,1.1-2.1h1ZM383,205.7h.4l1.6,4.5-3,27.6h-3.1l4.1-32.1ZM382.2,235.3h0v.2c0,.5.2.9.5,1.3.3.4.8.6,1.2.6h.7v.4h-2.8v-2.6h.3ZM383.4,205.7l14.7,24.2-2.6,8.9-13.3-22.4,1.2-10.7ZM410.8,205.7l.4,4.9-13.4,23.2c-.6,1-1,2-1.3,2.7s-.4,1.5-.4,2.2h-.5l-1.8-3.9,17-29.1ZM407.9,235.3h.3v2.6h-2.7v-.4h.7c.5,0,.9-.2,1.3-.6s.5-.8.5-1.3h0v-.2ZM411.2,205.7l4.3,32.1h-7.2l-2.2-20.7,4.8-11.4h.4ZM414.1,234.6h.9c.1.9.5,1.6,1.2,2.1s1.3.7,2.1.7h.7v.5h-5v-3.3Z"/>
            <path class="cls-1" d="M428.7,209.6h-7.6c-.4-.8-1-1.4-1.8-2-.8-.5-1.7-.8-2.7-.8h-.6v-.5h14.9v.5h-.6c-.7,0-1.2.3-1.5.9-.3.6-.4,1.2,0,1.9ZM427,206.4l9.2,16.7-6.4.6-10.5-17.4h7.7ZM429.8,234.6v3.3h-3.6v-.5h.6c.8,0,1.4-.3,2-.8s.8-1.2.9-2h.1ZM436.4,223.3v14.5h-6.8v-14.5h6.8ZM443.7,206.4h3.5l-11.2,17.9-2.2-.5,10-17.4ZM436.3,234.6h.1c0,.8.3,1.4.9,2,.6.6,1.2.8,2,.8h.5v.5h-3.6v-3.3ZM441.8,209.6c.3-.4.3-.8.2-1.3-.1-.4-.3-.8-.7-1.1-.3-.3-.7-.4-1.1-.4h-.5v-.5h10.8v.5h-.6c-.9,0-1.8.3-2.6.8s-1.5,1.2-1.9,1.8h-3.5Z"/>
          </g>
          <g>
            <path class="cls-3" d="M21.3,260.4h-4.1c-.2-.5-.5-1-1-1.3-.4-.3-1-.5-1.5-.5h-.3v-.3h8.2v.3h-.3c-.3,0-.7.1-.9.4s-.3.7,0,1.4ZM16.4,258.5h4.2l4.6,12.9-1.3,6.5-7.5-19.4ZM30.4,257.8l.4,2.8-5.9,13.9c-.2.7-.4,1.3-.5,1.8-.1.5-.2,1-.2,1.5h-.3l-.8-3.3,6.9-16.7h.3ZM30.4,257.8l6.2,13.6-1.2,6.4-6.8-14.8,1.8-5.2ZM41.5,258.5l-5.3,16c-.2.7-.4,1.3-.5,1.8,0,.5-.1,1-.1,1.5h-.3l-.7-3,4.9-16.4h2ZM38.9,260.4c.2-.6.2-1.1,0-1.4-.2-.3-.5-.4-.9-.4h-.3v-.3h6v.3h-.2c-.6,0-1.1.2-1.5.5-.5.3-.8.8-1,1.3h-2Z"/>
            <path class="cls-3" d="M48.1,260.3h0c0-.5-.2-.9-.5-1.2-.3-.3-.8-.5-1.2-.5h-.4v-.3h2.2v2ZM48.1,275.5v2h-2.2v-.3h.4c.5,0,.9-.2,1.2-.5.3-.3.5-.7.5-1.2h0ZM51.7,258.3v19.2h-3.8v-19.2h3.8ZM61.6,267.4v1.2h-10.1v-1.2h10.1ZM51.6,260.3v-2h2.2v.3h-.4c-.5,0-.9.2-1.3.5-.4.3-.5.7-.5,1.2h0ZM51.6,275.5h0c0,.5.2.9.5,1.2.4.3.8.5,1.3.5h.4v.3h-2.2v-2ZM61.4,260.3h0c0-.5-.2-.9-.5-1.2-.3-.3-.8-.5-1.3-.5h-.4v-.3h2.2v2ZM61.4,275.5v2h-2.2v-.3h.4c.5,0,.9-.2,1.3-.5s.5-.7.5-1.2h0ZM65,258.3v19.2h-3.7v-19.2h3.7ZM64.9,275.5h0c0,.5.2.9.5,1.2.3.3.8.5,1.2.5h.4v.3h-2.3v-2ZM64.9,260.3v-2h2.2v.3h-.4c-.5,0-.9.2-1.2.5-.3.3-.5.7-.5,1.2h0Z"/>
            <path class="cls-3" d="M73.3,260.3h0c0-.5-.2-.9-.5-1.2-.3-.3-.8-.5-1.2-.5h-.4v-.3h2.5l-.2,2ZM73.3,275.5l.2,2h-2.5v-.3h.4c.5,0,.9-.2,1.2-.5.3-.3.5-.7.5-1.2h0ZM77,258.3v19.2h-3.7v-19.2h3.7ZM85.1,258.3v1.2h-8.2v-1.2h8.2ZM83.6,267.3v1.2h-6.7v-1.2h6.7ZM84.9,276.3l.5,1.2h-8.4v-1.2h7.9ZM86.8,272l-1.4,5.4h-5.3l1-1.2c1,0,1.8-.2,2.5-.5.7-.4,1.3-.8,1.7-1.5.5-.6.9-1.4,1.2-2.2h.3ZM83.6,264.9v2.5h-2.4c.7,0,1.2-.3,1.5-.7.4-.4.5-.9.5-1.5v-.3h.3ZM83.6,268.5v2.5h-.3v-.3c0-.6-.2-1.1-.5-1.5-.4-.4-.9-.6-1.5-.6h0c0,0,2.4,0,2.4,0ZM85.1,257.8v.8l-3.5-.3c.6,0,1.3,0,2-.2s1.2-.2,1.5-.3ZM85.1,259.4v3h-.4v-.4c0-.8-.2-1.4-.6-1.9-.4-.5-1-.7-1.8-.7h0c0,0,2.8,0,2.8,0Z"/>
            <path class="cls-3" d="M92.4,260.3h0c0-.5-.2-.9-.5-1.2-.3-.3-.7-.5-1.2-.5h-.4v-.3h2.4l-.2,2ZM92.4,275.5l.2,2h-2.4v-.3h.4c.5,0,.9-.2,1.2-.5.3-.3.5-.7.5-1.2h0ZM96.1,258.3v19.2h-3.8v-19.2h3.8ZM99.4,258.3c.9,0,1.8,0,2.6.3.8.2,1.5.5,2.2.9.6.4,1.1,1,1.5,1.6.4.7.5,1.5.5,2.4s-.2,1.6-.5,2.3c-.3.8-.9,1.4-1.5,1.9-.7.5-1.5.8-2.6,1,.5.2,1.1.5,1.6,1.1s1,1.1,1.3,1.6c0,.1.2.3.5.7.2.4.5.8.9,1.3.4.5.7,1,1.1,1.5.4.6.8,1,1.2,1.3.3.3.7.6,1.1.7.4.1.8.2,1.3.2v.3h-2.1c-1.2,0-2.1-.1-2.9-.3-.8-.2-1.5-.5-2-1-.5-.4-1-1-1.5-1.7-.1-.2-.3-.6-.6-1-.2-.4-.5-.8-.8-1.3-.3-.4-.5-.9-.7-1.2-.2-.4-.4-.7-.4-.9-.3-.6-.7-1.1-1.1-1.5-.4-.3-.8-.5-1.2-.5v-.3s.1,0,.4,0c.2,0,.5,0,.8,0,.5,0,1,0,1.5-.2s1-.4,1.4-.8.7-1.1.9-2c0-.2.1-.4.1-.6,0-.3,0-.5,0-.9,0-.7-.1-1.3-.4-1.8-.2-.5-.5-.9-.9-1.1-.4-.3-.8-.5-1.2-.6s-.8-.2-1.2-.2c-.6,0-1.2,0-1.6,0-.5,0-.8,0-.9,0,0,0,0-.1,0-.3,0-.2-.1-.5-.2-.9h3.6ZM96.1,275.5h0c0,.5.2.9.6,1.2.4.3.8.5,1.2.5h.4v.3s-2.4,0-2.4,0l.2-2Z"/>
            <path class="cls-3" d="M114.5,260.3h0c0-.5-.2-.9-.5-1.2-.3-.3-.8-.5-1.2-.5h-.4v-.3h2.5l-.2,2ZM114.5,275.5l.2,2h-2.5v-.3h.4c.5,0,.9-.2,1.2-.5.3-.3.5-.7.5-1.2h0ZM118.1,258.3v19.2h-3.7v-19.2h3.7ZM126.2,258.3v1.2h-8.2v-1.2h8.2ZM124.8,267.3v1.2h-6.7v-1.2h6.7ZM126,276.3l.5,1.2h-8.4v-1.2h7.9ZM128,272l-1.4,5.4h-5.3l1-1.2c1,0,1.8-.2,2.5-.5.7-.4,1.3-.8,1.7-1.5.5-.6.9-1.4,1.2-2.2h.3ZM124.8,264.9v2.5h-2.4c.7,0,1.2-.3,1.5-.7.4-.4.5-.9.5-1.5v-.3h.3ZM124.8,268.5v2.5h-.3v-.3c0-.6-.2-1.1-.5-1.5-.4-.4-.9-.6-1.5-.6h0c0,0,2.4,0,2.4,0ZM126.2,257.8v.8l-3.5-.3c.6,0,1.3,0,2-.2s1.2-.2,1.5-.3ZM126.2,259.4v3h-.4v-.4c0-.8-.2-1.4-.6-1.9-.4-.5-1-.7-1.8-.7h0c0,0,2.8,0,2.8,0Z"/>
            <path class="cls-3" d="M143.1,260.3h0c0-.5-.2-.9-.5-1.2-.3-.3-.8-.5-1.2-.5h-.4v-.3h2.5l-.2,2ZM143.1,275.5l.2,2h-2.5v-.3h.4c.5,0,.9-.2,1.2-.5.3-.3.5-.7.5-1.2h0ZM146.7,258.3v19.2h-3.7v-19.2h3.7ZM154.8,258.3v1.2h-8.2v-1.2h8.2ZM153.4,267.3v1.2h-6.7v-1.2h6.7ZM154.6,276.3l.5,1.2h-8.4v-1.2h7.9ZM156.6,272l-1.4,5.4h-5.3l1-1.2c1,0,1.8-.2,2.5-.5.7-.4,1.3-.8,1.7-1.5.5-.6.9-1.4,1.2-2.2h.3ZM153.4,264.9v2.5h-2.4c.7,0,1.2-.3,1.5-.7.4-.4.5-.9.5-1.5v-.3h.3ZM153.4,268.5v2.5h-.3v-.3c0-.6-.2-1.1-.5-1.5-.4-.4-.9-.6-1.5-.6h0c0,0,2.4,0,2.4,0ZM154.8,257.8v.8l-3.5-.3c.6,0,1.3,0,2-.2s1.2-.2,1.5-.3ZM154.8,259.4v3h-.4v-.4c0-.8-.2-1.4-.6-1.9-.4-.5-1-.7-1.8-.7h0c0,0,2.8,0,2.8,0Z"/>
            <path class="cls-3" d="M165.2,260.5h-4.4c-.3-.7-.7-1.2-1.2-1.5-.5-.3-.9-.4-1.3-.4h-.3v-.3h8.4v.3h-.3c-.3,0-.7.2-1,.5-.3.3-.3.8-.1,1.4ZM169.1,277.9l-9.2-19.4h4.5l6.1,14.6-1.4,4.9ZM169.1,277.9l-.2-3.2,7.1-16.3h2.2l-7.5,15.8c0,0-.1.3-.3.6-.1.3-.3.7-.5,1.1-.2.4-.3.8-.4,1.2-.1.4-.2.7-.3.9h-.3ZM175.1,260.5c.2-.6.2-1.1,0-1.4-.3-.3-.6-.5-1-.5h-.2v-.3h6.3v.3h-.3c-.4,0-.9.1-1.3.4-.5.3-.9.8-1.2,1.5h-2.2Z"/>
            <path class="cls-3" d="M184.5,260.3h0c0-.5-.2-.9-.5-1.2-.3-.3-.8-.5-1.2-.5h-.4v-.3h2.5l-.2,2ZM184.5,275.5l.2,2h-2.5v-.3h.4c.5,0,.9-.2,1.2-.5.3-.3.5-.7.5-1.2h0ZM188.1,258.3v19.2h-3.7v-19.2h3.7ZM196.2,258.3v1.2h-8.2v-1.2h8.2ZM194.8,267.3v1.2h-6.7v-1.2h6.7ZM196,276.3l.5,1.2h-8.4v-1.2h7.9ZM198,272l-1.4,5.4h-5.3l1-1.2c1,0,1.8-.2,2.5-.5.7-.4,1.3-.8,1.7-1.5.5-.6.9-1.4,1.2-2.2h.3ZM194.8,264.9v2.5h-2.4c.7,0,1.2-.3,1.5-.7.4-.4.5-.9.5-1.5v-.3h.3ZM194.8,268.5v2.5h-.3v-.3c0-.6-.2-1.1-.5-1.5-.4-.4-.9-.6-1.5-.6h0c0,0,2.4,0,2.4,0ZM196.2,257.8v.8l-3.5-.3c.6,0,1.3,0,2-.2s1.2-.2,1.5-.3ZM196.2,259.4v3h-.4v-.4c0-.8-.2-1.4-.6-1.9-.4-.5-1-.7-1.8-.7h0c0,0,2.8,0,2.8,0Z"/>
            <path class="cls-3" d="M203.6,260.3h0c0-.5-.2-.9-.5-1.2-.3-.3-.7-.5-1.2-.5h-.4v-.3h2.4l-.2,2ZM203.6,275.5l.2,2h-2.4v-.3h.4c.5,0,.9-.2,1.2-.5.3-.3.5-.7.5-1.2h0ZM207.3,258.3v19.2h-3.8v-19.2h3.8ZM210.6,258.3c.9,0,1.8,0,2.6.3.8.2,1.5.5,2.2.9.6.4,1.1,1,1.5,1.6.4.7.5,1.5.5,2.4s-.2,1.6-.5,2.3c-.3.8-.9,1.4-1.5,1.9-.7.5-1.5.8-2.6,1,.5.2,1.1.5,1.6,1.1s1,1.1,1.3,1.6c0,.1.2.3.5.7.2.4.5.8.9,1.3.4.5.7,1,1.1,1.5.4.6.8,1,1.2,1.3.3.3.7.6,1.1.7.4.1.8.2,1.3.2v.3h-2.1c-1.2,0-2.1-.1-2.9-.3-.8-.2-1.5-.5-2-1-.5-.4-1-1-1.5-1.7-.1-.2-.3-.6-.6-1-.2-.4-.5-.8-.8-1.3-.3-.4-.5-.9-.7-1.2-.2-.4-.4-.7-.4-.9-.3-.6-.7-1.1-1.1-1.5-.4-.3-.8-.5-1.2-.5v-.3s.1,0,.4,0c.2,0,.5,0,.8,0,.5,0,1,0,1.5-.2s1-.4,1.4-.8.7-1.1.9-2c0-.2.1-.4.1-.6,0-.3,0-.5,0-.9,0-.7-.1-1.3-.4-1.8-.2-.5-.5-.9-.9-1.1-.4-.3-.8-.5-1.2-.6s-.8-.2-1.2-.2c-.6,0-1.2,0-1.6,0-.5,0-.8,0-.9,0,0,0,0-.1,0-.3,0-.2-.1-.5-.2-.9h3.6ZM207.2,275.5h0c0,.5.2.9.6,1.2.4.3.8.5,1.2.5h.4v.3s-2.4,0-2.4,0l.2-2Z"/>
            <path class="cls-3" d="M227.8,260.3h-4.4c-.3-.6-.7-.9-1.2-1.2-.5-.3-1-.4-1.6-.4h-.4v-.3h8.9v.3h-.4c-.4,0-.8.2-1,.5-.2.4-.2.7,0,1.1ZM226.7,258.3l6,10.5-3.3.7-7.1-11.1h4.4ZM229.3,275.5v2h-2.3v-.3h.4c.5,0,.9-.2,1.3-.5.4-.3.5-.7.5-1.2h0ZM233,268.9v8.5h-3.8v-8.5h3.8ZM237.8,258.3h2.2l-7.3,11.3-1.4-.3,6.5-10.9ZM232.9,275.5h0c0,.5.2.9.5,1.2.3.3.8.5,1.2.5h.4v.3h-2.3v-2ZM236.6,260.3c.2-.4.2-.8,0-1.2-.2-.4-.5-.5-1-.5h-.4v-.3h6.8v.3h-.4c-.6,0-1.1.2-1.6.5-.5.3-.9.7-1.2,1.1h-2.2Z"/>
            <path class="cls-3" d="M255.6,260.3h0c0-.5-.2-.9-.6-1.2-.4-.3-.8-.5-1.3-.5h-.4v-.3h2.2v2ZM255.6,275.5v2h-2.2v-.3h.4c.5,0,.9-.2,1.3-.5.4-.3.5-.7.6-1.2h0ZM259.3,258.3v19.2h-3.7v-19.2h3.7ZM259.2,260.3v-2h2.2v.3h-.4c-.5,0-.9.2-1.3.5-.4.3-.5.7-.5,1.2h0ZM259.2,275.5h0c0,.5.2.9.5,1.2.4.3.8.5,1.3.5h.3v.3h-2.2v-2ZM270.5,258.5l-8.5,9.7h-1.7c0,.1,7.7-9.7,7.7-9.7h2.5ZM263.2,265.9l7.6,9.6c.4.6.8,1,1.2,1.2.4.3,1,.4,1.6.4v.3h-2c-.2,0-.5,0-1,0-.5,0-1-.1-1.5-.2-.6-.1-1.1-.4-1.7-.7-.6-.3-1.1-.7-1.6-1.3,0-.1-.2-.3-.5-.7-.3-.4-.6-.8-1-1.3-.4-.5-.8-1.1-1.3-1.6-.4-.6-.9-1.1-1.3-1.6s-.8-1.1-1.3-1.7l2.9-2.5ZM272.6,258.3v.3h-.1c-.6,0-1.2.1-1.7.3-.5.2-1,.5-1.4,1h-2.3c.2-.4.3-.6.1-.9-.1-.3-.4-.4-.8-.4h-.3v-.3h6.5Z"/>
            <path class="cls-3" d="M278.2,260.3h0c0-.5-.2-.9-.6-1.2-.4-.3-.8-.5-1.4-.5h-.4v-.3h2.5v2ZM278.2,275.5v2h-2.5v-.3h.4c.5,0,1-.2,1.4-.5.4-.3.6-.7.6-1.2h0ZM281.9,258.3v19.2h-3.7v-19.2h3.7ZM281.8,260.3v-2h2.5v.3h-.4c-.6,0-1,.2-1.4.5-.4.3-.6.7-.6,1.2h0ZM281.8,275.5h0c0,.5.2.9.6,1.2.4.3.8.5,1.4.5h.4v.3h-2.5v-2Z"/>
            <path class="cls-3" d="M290.4,260.3h0c0-.5-.2-.9-.6-1.2-.4-.3-.8-.5-1.3-.5h-.4v-.3h2.3v2ZM290.4,275.4v2.1h-2.3v-.3h.4c.5,0,.9-.2,1.3-.5.3-.4.5-.8.5-1.2h0ZM294.1,258.3v19.2h-3.8v-19.2h3.8ZM298.9,258.3c2.2,0,4.2.4,5.8,1.2,1.6.8,2.8,1.9,3.7,3.3.9,1.4,1.3,3.1,1.3,5.2s-.4,3.7-1.3,5.2c-.9,1.4-2.1,2.5-3.7,3.3-1.6.8-3.5,1.2-5.8,1.2h-7v-1.2h6.8c2.2,0,3.9-.8,5.1-2.3s1.9-3.6,1.9-6.2-.6-4.7-1.9-6.2-2.9-2.3-5.1-2.3h-7.1v-1.2h7.4Z"/>
            <path class="cls-3" d="M325.2,260.3h0c0-.5-.2-.9-.5-1.2-.4-.3-.8-.5-1.3-.5h-.4v-.3h2.5l-.2,2ZM325.2,275.5l.2,2h-2.5v-.3h.4c.5,0,.9-.2,1.3-.5.4-.3.5-.7.5-1.2h0ZM328.9,258.3v19.2h-3.7v-19.2h3.7ZM328.8,275.5h0c0,.5.2.9.5,1.2.3.3.8.5,1.3.5h.4v.3h-2.5l.2-2ZM337,258.3v1.2h-8.2v-1.2h8.2ZM335.6,267.3v1.2h-6.8v-1.2h6.8ZM335.6,264.9v2.5h-2.4c.7,0,1.2-.3,1.5-.7.4-.4.5-.9.5-1.5v-.3h.3ZM335.6,268.5v2.5h-.3v-.3c0-.6-.2-1.1-.5-1.5-.4-.4-.9-.6-1.5-.6h0c0,0,2.4,0,2.4,0ZM337,257.8v.8l-3.5-.3c.4,0,.8,0,1.3,0,.5,0,.9-.1,1.3-.2.4,0,.7-.2.8-.2ZM337,259.4v3h-.4v-.4c0-.8-.2-1.4-.6-1.9-.4-.5-1-.7-1.9-.7h0c0,0,2.8,0,2.8,0Z"/>
            <path class="cls-3" d="M343.8,260.3h0c0-.5-.2-.9-.6-1.2-.4-.3-.8-.5-1.4-.5h-.4v-.3h2.5v2ZM343.8,275.5v2h-2.5v-.3h.4c.5,0,1-.2,1.4-.5.4-.3.6-.7.6-1.2h0ZM347.4,258.3v19.2h-3.7v-19.2h3.7ZM347.3,260.3v-2h2.5v.3h-.4c-.6,0-1,.2-1.4.5-.4.3-.6.7-.6,1.2h0ZM347.3,275.5h0c0,.5.2.9.6,1.2.4.3.8.5,1.4.5h.4v.3h-2.5v-2Z"/>
            <path class="cls-3" d="M352.9,257.7c.2,0,.4.1.8.2.4,0,.8.2,1.3.2.5,0,.9,0,1.3,0l-3.4.3v-.8ZM371.1,258.3v1.2h-18.2v-1.2h18.2ZM355.7,259.3h0c-.8.1-1.4.4-1.8.8-.4.5-.7,1.1-.7,1.8v.4h-.3v-3h2.8ZM360.1,275.5v2h-2.2v-.3h.4c.5,0,.9-.2,1.2-.5.3-.3.5-.7.5-1.2h0ZM363.9,258.4v19.1h-3.8v-19.1h3.8ZM363.7,275.5h.1c0,.5.2.9.5,1.2.4.3.8.5,1.3.5h.3v.3h-2.2v-2ZM371.1,257.7v.8l-3.5-.3c.4,0,.9,0,1.3,0,.5,0,.9-.1,1.3-.2.4,0,.7-.2.8-.2ZM371.1,259.3v3h-.4v-.4c0-.7-.2-1.3-.6-1.8-.4-.5-1.1-.7-1.8-.7h0c0,0,2.8,0,2.8,0Z"/>
            <path class="cls-3" d="M380.4,257.9c.5,0,1,0,1.6,0,.5,0,1.1,0,1.6.1.5,0,1,.1,1.4.2.4,0,.7.1.8.2l-.3,3.6h-.3c0-.9-.3-1.7-1-2.2-.7-.6-1.6-.8-2.9-.8s-1.9.3-2.6.8-1,1.1-1.1,1.9c0,.4,0,.7.2,1s.3.6.6.8c.3.3.6.5,1,.7l5.5,3.7c.7.4,1.3,1,1.7,1.8.4.8.6,1.6.6,2.6,0,1.1-.4,2.1-.9,2.9-.6.8-1.4,1.5-2.4,2-1,.5-2.2.7-3.6.7s-1.6,0-2.4-.2c-.8-.1-1.4-.3-2-.6s-1-.5-1.4-.9c-.1-.4-.2-.9-.2-1.4,0-.6.1-1.1.2-1.7s.3-1.1.5-1.5h.3c0,1,.1,1.8.5,2.6.4.8,1,1.4,1.8,1.8.8.4,1.7.7,2.8.7,1.3,0,2.2-.3,2.9-.9.7-.6,1-1.3,1-2.2s-.2-1.1-.5-1.5c-.3-.4-.8-.9-1.5-1.3l-5.2-3.6c-.9-.5-1.6-1.2-2-2-.4-.8-.5-1.7-.4-2.6,0-1,.3-1.8.8-2.5.5-.7,1.1-1.3,2-1.7.8-.4,1.8-.6,2.8-.6ZM385.7,258.2v.5h-3.1v-.5h3.1Z"/>
            <path class="cls-3" d="M403.2,260.3h0c0-.5-.2-.9-.6-1.2-.4-.3-.8-.5-1.4-.5h-.4v-.3h2.5v2ZM403.2,275.5v2h-2.5v-.3h.4c.5,0,1-.2,1.4-.5.4-.3.6-.7.6-1.2h0ZM406.9,258.3v19.2h-3.7v-19.2h3.7ZM406.8,260.3v-2h2.5v.3h-.4c-.6,0-1,.2-1.4.5-.4.3-.6.7-.6,1.2h0ZM406.8,275.5h0c0,.5.2.9.6,1.2.4.3.8.5,1.4.5h.4v.3h-2.5v-2Z"/>
            <path class="cls-3" d="M415.1,275.5v2h-2.4v-.3h.5c.5,0,.9-.2,1.2-.5.3-.3.5-.7.5-1.2h0ZM415,257.8l3.4,3.8v15.8h-3.4v-15.9c0-1.1-.1-2.3-.3-3.7h.3ZM415,257.8l18.4,16.6.3,3.5-18.4-16.6-.3-3.5ZM418.4,275.5c0,.5.2.9.6,1.2.4.3.8.5,1.2.5h.5v.3h-2.4v-2h0ZM430.4,260.2c0-.5-.2-.9-.5-1.2-.3-.3-.7-.5-1.2-.5h-.5v-.3h2.4v2h0ZM433.7,258.3v15.8c0,.7,0,1.4,0,2,0,.6.1,1.2.2,1.9h-.3l-3.4-4v-15.6h3.4ZM433.7,260.2v-2h2.4v.3h-.5c-.5,0-.9.2-1.2.5-.4.3-.5.7-.5,1.2h0Z"/>
            <path class="cls-3" d="M442.1,272.2h-.9l-.8-5.2-.4-8.5h3.5l-.5,8.5-.8,5.2ZM441.7,277.7c-.5,0-.9-.2-1.2-.5s-.5-.7-.5-1.2.2-.9.5-1.2.7-.5,1.2-.5.9.2,1.2.5c.3.3.5.7.5,1.2s-.2.9-.5,1.2c-.3.3-.7.5-1.2.5Z"/>
          </g>
        </g>
        <g>
          <g>
            <polygon class="cls-2" points="347.4 100.2 302.8 132.6 319.8 185 374.9 185 392 132.6 347.4 100.2"/>
            <polygon class="cls-2" points="329.7 46.9 274.6 46.9 257.6 99.3 302.1 131.7 346.7 99.3 329.7 46.9"/>
          </g>
          <g>
            <polygon class="cls-2" points="112.1 100.2 156.7 132.6 139.7 185 84.6 185 67.6 132.6 112.1 100.2"/>
            <polygon class="cls-2" points="129.8 46.9 184.9 46.9 202 99.3 157.4 131.7 112.8 99.3 129.8 46.9"/>
          </g>
          <polygon class="cls-2" points="229.6 14.5 185 46.9 202.1 99.3 257.2 99.3 274.2 46.9 229.6 14.5"/>
        </g>
      </g>
    </g>
  </g>
</svg>